<svg width="78" height="84" viewBox="0 0 78 84" fill="none" xmlns="http://www.w3.org/2000/svg">
<path d="M21.3432 18.9061C18.4691 11.3596 17.7027 -3.68043 12.3975 1.37559C4.81641 8.59783 11.0258 19.9645 14.6357 25.2349C0.159322 40.5598 -5.23318 58.7124 7.04253 71.6016C7.06637 71.628 7.09202 71.6521 7.11586 71.6784C9.41078 74.0678 13.1659 73.0051 14.3199 70.2208C15.0011 71.2246 15.7891 72.1974 16.6838 73.1392C25.3793 82.2676 43.2683 87.1266 55.9648 80.8661C59.3762 79.1831 63.3754 79.1766 66.8345 80.7577L71.7523 83.0075C74.2011 84.1263 76.7618 81.6859 75.7633 79.1869L73.753 74.1632C72.3385 70.6319 72.5397 66.6357 74.3849 63.3099C81.2492 50.9297 77.2636 32.8263 68.5682 23.6979C67.6716 22.7584 66.7353 21.9254 65.7669 21.194C68.603 20.1746 69.8478 16.4766 67.5715 14.0684C67.5477 14.042 67.522 14.0179 67.4982 13.9915C55.3508 1.24165 37.2247 5.52556 21.3427 18.902L21.3432 18.9061ZM64.0838 22.9757C63.7417 23.4771 61.8201 24.0687 61.7132 24.081C60.5406 24.1993 47.9158 24.2288 33.3143 37.7554C22.0274 48.2117 15.3648 65.8154 15.2928 67.5094C15.2871 67.6766 15.2777 69.0096 14.6598 69.2472C14.4806 69.3178 14.2946 69.2747 14.1666 69.2291C14.6826 65.0385 17.9169 48.6265 31.8462 35.8432C45.3085 23.4882 59.934 22.6125 64.2642 22.3722C64.2594 22.5476 64.2228 22.7724 64.0838 22.9757Z" fill="#BF7543"/>
</svg>
