<svg width="78" height="84" viewBox="0 0 78 84" fill="none" xmlns="http://www.w3.org/2000/svg">
<path d="M21.3432 18.906C18.4691 11.3594 17.7027 -3.68055 12.3975 1.37547C4.81641 8.59771 11.0258 19.9644 14.6357 25.2347C0.159322 40.5597 -5.23318 58.7123 7.04253 71.6014C7.06637 71.6278 7.09202 71.6519 7.11586 71.6783C9.41078 74.0677 13.1659 73.0049 14.3199 70.2207C15.0011 71.2245 15.7891 72.1973 16.6838 73.1391C25.3793 82.2675 43.2683 87.1265 55.9648 80.866C59.3762 79.183 63.3754 79.1765 66.8345 80.7575L71.7523 83.0074C74.2011 84.1262 76.7618 81.6858 75.7633 79.1867L73.753 74.1631C72.3385 70.6318 72.5397 66.6356 74.3849 63.3098C81.2492 50.9296 77.2636 32.8261 68.5682 23.6977C67.6716 22.7582 66.7353 21.9253 65.7669 21.1939C68.603 20.1744 69.8478 16.4765 67.5715 14.0683C67.5477 14.0419 67.522 14.0178 67.4982 13.9914C55.3508 1.24153 37.2247 5.52544 21.3427 18.9019L21.3432 18.906ZM64.0838 22.9756C63.7417 23.477 61.8201 24.0686 61.7132 24.0809C60.5406 24.1992 47.9158 24.2286 33.3143 37.7553C22.0274 48.2116 15.3648 65.8152 15.2928 67.5093C15.2871 67.6765 15.2777 69.0095 14.6598 69.2471C14.4806 69.3177 14.2946 69.2746 14.1666 69.2289C14.6826 65.0384 17.9169 48.6264 31.8462 35.8431C45.3085 23.4881 59.934 22.6124 64.2642 22.3721C64.2594 22.5474 64.2228 22.7723 64.0838 22.9756Z" fill="#BF7543"/>
</svg>
